<svg width="240" height="30" viewBox="0 0 1200 100" fill="none" xmlns="http://www.w3.org/2000/svg">
<path fill-rule="evenodd" clip-rule="evenodd" d="M42.7227 64H108.948L75.8346 114L42.7227 64Z" fill="#18E293"/>
<path fill-rule="evenodd" clip-rule="evenodd" d="M89.8341 49L57.834 0H0.333984L32.7793 49H89.8341Z" fill="#18E293"/>
<path fill-rule="evenodd" clip-rule="evenodd" d="M89.8491 0L80.0879 14.6979L102.333 49H118.89L151.333 0H89.8491Z" fill="url(#paint0_linear_44_23)"/>
<path d="M780.075 90.7441C783.129 90.7441 786.726 90.0654 790.934 88.5723V100.11C787.744 101.875 783.4 102.757 777.971 102.757C769.826 102.757 763.446 100.246 758.831 95.0879C754.216 89.9976 751.976 83.6177 751.976 76.0161V44.3203H738.334V33.8003H751.976V15H765.211V33.8003H790.73V44.3203H765.211V74.9302C765.211 79.5454 766.433 83.3462 768.944 86.3325C771.387 89.3188 775.12 90.7441 780.075 90.7441Z" fill="#F4FDFF"/>
<path d="M539.334 101.26V34H552.569V101.26H539.334Z" fill="#F4FDFF"/>
<path d="M484.334 101.686V34.4253H496.008L496.822 52.6147H496.958C498.791 46.5063 502.048 41.7554 506.731 38.2939C511.415 34.9004 516.641 33.1357 522.41 33V44.9453C514.876 44.9453 508.835 47.4565 504.356 52.3433C499.809 57.2979 497.569 63.542 497.569 71.0757V101.686H484.334Z" fill="#F4FDFF"/>
<path d="M427.084 102.654C417.854 102.654 409.777 99.3281 402.786 92.541C395.795 85.7539 392.334 77.4058 392.334 67.3608C392.334 57.3159 395.795 48.9678 402.786 42.1807C409.777 35.3936 417.854 32 427.084 32C432.989 32 438.418 33.6289 443.441 36.751C448.463 39.873 451.857 43.9453 453.757 48.9678H454.029L454.504 33.6968H466.313V100.957H454.504L454.029 85.686H453.757C451.789 90.8442 448.328 94.9165 443.305 98.0386C438.283 101.161 432.921 102.654 427.084 102.654ZM429.256 90.98C435.839 90.98 441.405 88.6724 446.02 84.0571C450.635 79.4419 452.943 73.8765 452.943 67.3608C452.943 60.8452 450.635 55.2798 446.02 50.6646C441.405 46.0493 435.839 43.6738 429.256 43.6738C422.672 43.6738 417.107 46.0493 412.492 50.6646C407.876 55.2798 405.569 60.8452 405.569 67.3608C405.569 73.8765 407.876 79.4419 412.492 84.0571C417.107 88.6724 422.672 90.98 429.256 90.98Z" fill="#F4FDFF"/>
<path d="M604.084 102.654C594.854 102.654 586.777 99.3281 579.786 92.541C572.795 85.7539 569.334 77.4058 569.334 67.3608C569.334 57.3159 572.795 48.9678 579.786 42.1807C586.777 35.3936 594.854 32 604.084 32C609.989 32 615.418 33.6289 620.441 36.751C625.463 39.873 628.857 43.9453 630.757 48.9678H631.029L631.504 33.6968H643.313V100.957H631.504L631.029 85.686H630.757C628.789 90.8442 625.328 94.9165 620.305 98.0386C615.283 101.161 609.921 102.654 604.084 102.654ZM606.256 90.98C612.839 90.98 618.405 88.6724 623.02 84.0571C627.635 79.4419 629.943 73.8765 629.943 67.3608C629.943 60.8452 627.635 55.2798 623.02 50.6646C618.405 46.0493 612.839 43.6738 606.256 43.6738C599.672 43.6738 594.107 46.0493 589.492 50.6646C584.876 55.2798 582.569 60.8452 582.569 67.3608C582.569 73.8765 584.876 79.4419 589.492 84.0571C594.107 88.6724 599.672 90.98 606.256 90.98Z" fill="#F4FDFF"/>
<path d="M344.862 101.26L311.334 34H325.791L348.052 81.2383L370.178 34H384.635L351.106 101.26H344.862Z" fill="#F4FDFF"/>
<path d="M234.334 101.957V34.6968H246.008L246.822 50.2393H246.958C248.858 45.0811 252.048 40.873 256.528 37.751C261.007 34.6289 265.894 33 271.324 33C280.283 33 287.545 36.1221 293.11 42.2983C298.676 48.4746 301.458 56.2119 301.458 65.5103V101.957H288.292V66.7998C288.292 60.6914 286.323 55.5332 282.522 51.2573C278.654 46.9814 273.767 44.8096 267.862 44.8096C262.297 44.8096 257.478 47.0493 253.542 51.5288C249.537 56.0083 247.569 61.3022 247.569 67.4785V101.957H234.334Z" fill="#F4FDFF"/>
<path d="M661.334 101.957V34.6968H673.008L673.822 50.2393H673.958C675.858 45.0811 679.048 40.873 683.528 37.751C688.007 34.6289 692.894 33 698.324 33C707.283 33 714.545 36.1221 720.11 42.2983C725.676 48.4746 728.458 56.2119 728.458 65.5103V101.957H715.292V66.7998C715.292 60.6914 713.323 55.5332 709.522 51.2573C705.654 46.9814 700.767 44.8096 694.862 44.8096C689.297 44.8096 684.478 47.0493 680.542 51.5288C676.537 56.0083 674.569 61.3022 674.569 67.4785V101.957H661.334Z" fill="#F4FDFF"/>
<path d="M201.334 103.119V10H215.248V103.119H201.334Z" fill="#F4FDFF"/>
<path d="M854.914 91.436H903.441V103.11H841V9.99072H854.914V91.436Z" fill="#F4FDFF"/>
<path d="M922.866 103.11V35.8496H936.101V103.11H922.866Z" fill="#F4FDFF"/>
<path d="M956 103.11V35.8496H967.674L968.488 51.3921H968.624C970.524 46.2339 973.714 42.0259 978.194 38.9038C982.673 35.7817 987.56 34.1528 992.99 34.1528C1001.95 34.1528 1009.21 37.2749 1014.78 43.4512C1020.34 49.6274 1023.12 57.3647 1023.12 66.6631V103.11H1009.96V67.9526C1009.96 61.8442 1007.99 56.686 1004.19 52.4102C1000.32 48.1343 995.433 45.9624 989.528 45.9624C983.963 45.9624 979.144 48.2021 975.208 52.6816C971.203 57.1611 969.235 62.4551 969.235 68.6313V103.11H956Z" fill="#F4FDFF"/>
<path d="M1043.02 103.11V3H1056.25V62.9302H1056.52L1087.34 35.8496H1104.03L1069.42 66.5273L1106 103.11H1089.03L1056.52 70.0566H1056.25V103.11H1043.02Z" fill="#F4FDFF"/>
<defs>
<linearGradient id="paint0_linear_44_23" x1="151.333" y1="4.78623e-06" x2="96.3335" y2="39.5" gradientUnits="userSpaceOnUse">
<stop stop-color="#EF84F5"/>
<stop offset="1" stop-color="#EF84F5" stop-opacity="0"/>
</linearGradient>
</defs>
</svg>